<svg xmlns="http://www.w3.org/2000/svg" viewBox="0 0 86.94 60.61"><defs><style>.cls-1{fill:#fff;}</style></defs><title>Asset 3</title><g id="Layer_2" data-name="Layer 2"><g id="Layer_1-2" data-name="Layer 1"><path class="cls-1" d="M23.59,8.76S22.22,1.64,40,.54s19.74,6,20.84,8.22c0,0,23.1-5.51,21.08,15.91,0,0,10.43,13.39-2.71,24.72,0,0-7.23,7.54-16,3.32,0,0-5.42,8.44-16,3,0,0-13.08,9-23.72-3,0,0-16.68,3.31-13.36-10,0,0-17.49-7.24-3.62-19.3C6.59,23.46,1.1,7,23.59,8.76Z"/><path d="M23.47,8.66a.12.12,0,0,0,0,.11V8.42c0-.12,0-.24,0-.36a4.21,4.21,0,0,1,.12-.71A5.26,5.26,0,0,1,24.11,6,7.54,7.54,0,0,1,26,4a16.52,16.52,0,0,1,5.05-2.36A46.88,46.88,0,0,1,42.06,0,34.17,34.17,0,0,1,53.15,1.15,13.94,13.94,0,0,1,58.2,3.8,10.35,10.35,0,0,1,60.14,6a20.18,20.18,0,0,1,1.33,2.49l-.74-.34a29.46,29.46,0,0,1,8.21-.67,17.38,17.38,0,0,1,8,2.28,12.07,12.07,0,0,1,3.22,2.87,12.76,12.76,0,0,1,2,3.82,21.06,21.06,0,0,1,.74,8.33l-.19-.68A22.79,22.79,0,0,1,86,30.52a18.89,18.89,0,0,1,.89,7.22,16.94,16.94,0,0,1-2.2,7A22.75,22.75,0,0,1,80,50.29l.08-.08a17.88,17.88,0,0,1-3.73,2.84,16.51,16.51,0,0,1-4.33,1.8,13.82,13.82,0,0,1-4.76.36,14.6,14.6,0,0,1-4.6-1.29l1.71-.49a11.53,11.53,0,0,1-1.65,2,13.81,13.81,0,0,1-1.94,1.56,12.26,12.26,0,0,1-4.65,1.86,13.28,13.28,0,0,1-5-.09,18.74,18.74,0,0,1-4.58-1.62L48.17,57A20.81,20.81,0,0,1,45,58.7a23.66,23.66,0,0,1-3.31,1.18,19.6,19.6,0,0,1-7.09.65,17.69,17.69,0,0,1-6.86-2.18,21.38,21.38,0,0,1-5.45-4.53l1.58.53a25.51,25.51,0,0,1-5.64.35,14.39,14.39,0,0,1-5.74-1.37,8.17,8.17,0,0,1-2.55-2,7.51,7.51,0,0,1-1.46-3,12.22,12.22,0,0,1,.26-6l.88,1.75A21.61,21.61,0,0,1,4,40.45,11.79,11.79,0,0,1,.22,34.56a8.33,8.33,0,0,1,0-3.65,10.56,10.56,0,0,1,1.33-3.26A20,20,0,0,1,6,22.74l-.28,1a14.54,14.54,0,0,1-.54-3.66,12.64,12.64,0,0,1,.39-3.67,9.54,9.54,0,0,1,4.3-5.87,15.78,15.78,0,0,1,6.79-2.1A27.26,27.26,0,0,1,23.47,8.66Zm.24.21a46.25,46.25,0,0,0-7,.4,14.71,14.71,0,0,0-6.21,2.31A8.38,8.38,0,0,0,7.1,16.8a12.81,12.81,0,0,0,.4,6.36l.19.59-.47.43a18.4,18.4,0,0,0-3.75,4.58,7,7,0,0,0-.77,5.18,9.21,9.21,0,0,0,3.13,4.42,20.31,20.31,0,0,0,4.95,3l1.17.51-.29,1.24a9.4,9.4,0,0,0-.14,4.45A4.35,4.35,0,0,0,14,50.42a11.29,11.29,0,0,0,4.42,1,22.14,22.14,0,0,0,4.83-.34l1-.17.63.71a19.62,19.62,0,0,0,4.61,3.81A14.57,14.57,0,0,0,35,57.25a17,17,0,0,0,5.92-.47,21.19,21.19,0,0,0,2.88-1,18.25,18.25,0,0,0,2.65-1.35l.8-.51.78.4A12.45,12.45,0,0,0,55.68,56,9.6,9.6,0,0,0,59.3,54.6a11.33,11.33,0,0,0,1.57-1.21A10.1,10.1,0,0,0,62.14,52l.7-1,1,.5a11,11,0,0,0,7.59.9,13.75,13.75,0,0,0,3.71-1.47,16.17,16.17,0,0,0,3.23-2.36l.07-.06h0a20.27,20.27,0,0,0,4.26-4.91,14.59,14.59,0,0,0,2-6,16.67,16.67,0,0,0-.7-6.41,20.68,20.68,0,0,0-2.85-5.88L81,24.93l0-.35A19.39,19.39,0,0,0,80.48,17a10.28,10.28,0,0,0-4.38-5.83,15.93,15.93,0,0,0-7.27-2.2A28.73,28.73,0,0,0,61,9.4l-.53.11-.21-.45a18.51,18.51,0,0,0-1.2-2.4,9.53,9.53,0,0,0-1.67-2,12.92,12.92,0,0,0-4.6-2.53A33.28,33.28,0,0,0,42.09.86,46.41,46.41,0,0,0,31.25,2.18a15.66,15.66,0,0,0-4.94,2.18,6.87,6.87,0,0,0-1.87,1.89,4.36,4.36,0,0,0-.55,1.2,3.63,3.63,0,0,0-.13.64,1.83,1.83,0,0,0,0,.33v.3A.2.2,0,0,1,23.71,8.87Z"/><path class="cls-1" d="M20,16.08S-2.28,19.32,11.9,33.9"/><path d="M20,16.08a47.49,47.49,0,0,0-6.23,2.46,12.36,12.36,0,0,0-4.92,3.88,6,6,0,0,0-.31,5.76A26.64,26.64,0,0,0,11.9,33.9a15.54,15.54,0,0,1-4.53-5.21,7.68,7.68,0,0,1-1-3.53,6.5,6.5,0,0,1,1.06-3.63,11.68,11.68,0,0,1,5.77-4.15A20.67,20.67,0,0,1,20,16.08Z"/><path class="cls-1" d="M19.3,42.73s-4.46,12,10.46,8.56c0,0-.49,5.38,6.84,2.2"/><path d="M19.3,42.73a12.56,12.56,0,0,0-.09,4.4,4.37,4.37,0,0,0,2.1,3.19,7.73,7.73,0,0,0,4,.76,26.74,26.74,0,0,0,4.32-.5l1-.18-.08,1a2.93,2.93,0,0,0,.35,1.7A2,2,0,0,0,32.3,54a6.51,6.51,0,0,0,2.11,0c.73-.1,1.45-.29,2.19-.46a12.24,12.24,0,0,1-2.05,1,6.31,6.31,0,0,1-2.36.44,3,3,0,0,1-2.38-1.15A3.87,3.87,0,0,1,29,51.22l.89.78a20.23,20.23,0,0,1-4.62.71,8.44,8.44,0,0,1-4.76-1.14,5.2,5.2,0,0,1-2.3-4.33A9.23,9.23,0,0,1,19.3,42.73Z"/><path class="cls-1" d="M72.85,17.47s15.52,4.11,4.84,16.43"/><path d="M72.85,17.47a12.61,12.61,0,0,1,5.29,1.82,8.48,8.48,0,0,1,3.77,4.47,7.67,7.67,0,0,1-.65,5.83,13,13,0,0,1-3.57,4.31,27.66,27.66,0,0,0,2.4-4.81,7.47,7.47,0,0,0,.27-4.83,8.64,8.64,0,0,0-3-3.94A26.42,26.42,0,0,0,72.85,17.47Z"/><path class="cls-1" d="M52.75,50.29s4.07,4.61,11.86,0c0,0,4.64-2.37,3.29-8.81"/><path d="M52.75,50.29a8.34,8.34,0,0,0,5.2,1.4,12.87,12.87,0,0,0,5.11-1.5l1.22-.63a6.7,6.7,0,0,0,1-.73,7.28,7.28,0,0,0,1.6-2,10.67,10.67,0,0,0,1-5.34A8.1,8.1,0,0,1,68,47.34,7.51,7.51,0,0,1,66.34,50a6.26,6.26,0,0,1-1.27,1l-1.29.72A11.35,11.35,0,0,1,57.93,53,6.91,6.91,0,0,1,52.75,50.29Z"/><path class="cls-1" d="M76.34,43.61s-.35,7-9,3.71"/><path d="M76.34,43.61a4.23,4.23,0,0,1-.46,3.07,4.34,4.34,0,0,1-2.61,2.07,6,6,0,0,1-3.22,0,9.87,9.87,0,0,1-1.43-.56,10.08,10.08,0,0,1-1.28-.84,14.32,14.32,0,0,1,1.49.07c.48,0,1,0,1.41.07a9.18,9.18,0,0,0,2.57-.27,4.68,4.68,0,0,0,2-1.24A8.55,8.55,0,0,0,76.34,43.61Z"/></g></g></svg>