<svg xmlns="http://www.w3.org/2000/svg" viewBox="0 0 61.36 52.04"><defs><style>.cls-1{fill:#fff;}</style></defs><title>Asset 7</title><g id="Layer_2" data-name="Layer 2"><g id="Layer_1-2" data-name="Layer 1"><path class="cls-1" d="M23.4,8.46s3-11.81,17.31-7.14c0,0,9.88,1.65,8,10.71,0,0,10.16-2.47,12.09,8,0,0,1.37,10.44-9.34,11.54,0,0,4.39,12.09-22,18.68,0,0,8-6.37,3.57-11.43,0,0-13.19,5.66-15.66-5.05,0,0-19.51,1.38-16.2-15.38C1.16,18.35,4.45,1.87,23.4,8.46Z"/><path d="M23.36,8.37c-.07,0,0,0,0,0l0-.08,0-.16.11-.32c.07-.21.16-.41.24-.62A13.34,13.34,0,0,1,24.34,6a12.29,12.29,0,0,1,1.53-2.19,10.9,10.9,0,0,1,4.38-3A13,13,0,0,1,35.54,0a20.85,20.85,0,0,1,5.26,1h0A13.27,13.27,0,0,1,44.4,2.3a9.82,9.82,0,0,1,3.07,2.37,7.67,7.67,0,0,1,1.69,3.54,10.28,10.28,0,0,1-.08,3.91l-.51-.5a13.12,13.12,0,0,1,4.28-.19,9.86,9.86,0,0,1,4.09,1.39,8.76,8.76,0,0,1,3,3.17,12.45,12.45,0,0,1,1.41,4.11,11.92,11.92,0,0,1-2.19,8.25,9.4,9.4,0,0,1-3.45,2.71,13.3,13.3,0,0,1-4.19,1.12l.54-.87a10,10,0,0,1-1.53,8.15,19.76,19.76,0,0,1-6,5.6,40.57,40.57,0,0,1-7.24,3.57,71.33,71.33,0,0,1-7.64,2.43l-3.73,1,3-2.52a18.18,18.18,0,0,0,2.21-2.26,12.86,12.86,0,0,0,1.68-2.61,5.72,5.72,0,0,0,.57-2.78,4.18,4.18,0,0,0-1.09-2.44l1.14.26a22.61,22.61,0,0,1-4.83,1.36,14.79,14.79,0,0,1-5.1.05,8.48,8.48,0,0,1-4.73-2.45A10,10,0,0,1,16.37,34l1.06.78a25.06,25.06,0,0,1-7.08-.69,15.78,15.78,0,0,1-6.49-3.12,10.5,10.5,0,0,1-3.63-6.3A16.2,16.2,0,0,1,.64,17.5,17.45,17.45,0,0,1,4,11.31a13.58,13.58,0,0,1,5.8-4,16.18,16.18,0,0,1,6.93-.66A24.09,24.09,0,0,1,23.36,8.37Zm.09.18a30.11,30.11,0,0,0-6.73-1.28,15.43,15.43,0,0,0-6.55,1A12.41,12.41,0,0,0,5,12.07,16.09,16.09,0,0,0,2,17.89a15.86,15.86,0,0,0-.19,6.43A8.86,8.86,0,0,0,5,29.56a14,14,0,0,0,5.8,2.6,25.49,25.49,0,0,0,6.5.56l.85,0,.21.82a7.9,7.9,0,0,0,1.89,3.72,6.52,6.52,0,0,0,3.62,1.84,13,13,0,0,0,4.4,0,21.34,21.34,0,0,0,4.37-1.18l.68-.27.45.53a6.07,6.07,0,0,1,1.52,3.59,7.54,7.54,0,0,1-.8,3.71,14.57,14.57,0,0,1-2,3A19.55,19.55,0,0,1,30,50.89l-.76-1.53a71.18,71.18,0,0,0,7.5-2.25,39.08,39.08,0,0,0,7-3.33,18.36,18.36,0,0,0,5.59-5.1,10.43,10.43,0,0,0,1.49-3.38,7.34,7.34,0,0,0,0-3.55l-.23-.8.78-.07a9.68,9.68,0,0,0,6.84-3.28,10.82,10.82,0,0,0,2-7.4,9.32,9.32,0,0,0-3.82-6.55,10.61,10.61,0,0,0-7.64-1.22l-.64.12.14-.61a9.66,9.66,0,0,0,.14-3.59,7,7,0,0,0-1.48-3.23,9.41,9.41,0,0,0-2.82-2.26A12.78,12.78,0,0,0,40.66,1.6h0A20.9,20.9,0,0,0,35.51.5a12.57,12.57,0,0,0-5.13.61A10.39,10.39,0,0,0,26.09,4a11.89,11.89,0,0,0-1.54,2.11A12.81,12.81,0,0,0,24,7.26c-.09.2-.17.4-.25.61l-.11.3-.05.16,0,.08A.24.24,0,0,1,23.45,8.55Z"/></g></g></svg>