<svg xmlns="http://www.w3.org/2000/svg" viewBox="0 0 122.32 91.96"><title>Asset 9</title><g id="Layer_2" data-name="Layer 2"><g id="Layer_1-2" data-name="Layer 1"><path d="M74,67.12a11.08,11.08,0,0,0,.82,7.61,16.86,16.86,0,0,0,5.12,5.79,23.35,23.35,0,0,0,3.32,2.06c1.19.52,2.4,1,3.62,1.38a67.92,67.92,0,0,0,15.07,3.15,77.25,77.25,0,0,0,8.06.35,116.24,116.24,0,0,1-13.86,2.11,92.65,92.65,0,0,1-21.19-.43c-7-1-13.84-3-19.82-6.78S46.34,76.92,42.9,70.65h0c1.38,3.09.77,2.55,2.91,5.22l-.69,0-2-.18a23.53,23.53,0,0,1-3.84-.77,13.7,13.7,0,0,1-3.5-1.52,9.13,9.13,0,0,1-1.48-1.12A5.08,5.08,0,0,1,33.26,71l-.4-.75-.78.41a39.88,39.88,0,0,1-6.95,3,23.73,23.73,0,0,1-7.27,1.14A16.31,16.31,0,0,1,11,73.13,13.63,13.63,0,0,1,8,71.2,14.4,14.4,0,0,1,6.79,70a9.3,9.3,0,0,1-1-1.29l-.06-.08,0-.06a20.75,20.75,0,0,1-3.41-6.64,15.09,15.09,0,0,1-.51-3.58,13.86,13.86,0,0,1,.46-3.56,17.31,17.31,0,0,1,3.32-6.55A25.54,25.54,0,0,1,11,43l1.22-.83L11.52,41l-.74-1.19-.06-.11-.07-.08a7.57,7.57,0,0,1-2.1-6.17,8.15,8.15,0,0,1,1.27-3.12A11.18,11.18,0,0,1,10.93,29c.19-.2.44-.44.59-.57l.75-.54a10.62,10.62,0,0,1,6.78-2.14A9.92,9.92,0,0,1,25.36,29l.6.65.53-.54,3.65-3.76-.2-.22L30,25,30,24.89a14.58,14.58,0,0,1-.92-6.57,13.55,13.55,0,0,1,2.21-6.19C33.73,8.4,37.68,6,41.75,4.2A27.12,27.12,0,0,1,54.62,1.67a15,15,0,0,1,6.11,1.9,15.33,15.33,0,0,1,4.72,4.28l.53.72.81-.5a33.38,33.38,0,0,1,10-4.2A21.06,21.06,0,0,1,87.44,4,18.24,18.24,0,0,1,96.13,9.8a33.48,33.48,0,0,1,5.41,9.38l.27.71.81.12a12.69,12.69,0,0,1,4,1.33,7.23,7.23,0,0,1,2.9,2.67,6.26,6.26,0,0,1,.71,3.78,13.25,13.25,0,0,1-1.14,4.12l-.64,1.47,1.59.48a11.74,11.74,0,0,1,1.82.77,13.87,13.87,0,0,1,1.75,1.1,13.66,13.66,0,0,1,2.91,2.92,15.48,15.48,0,0,1,2.76,7.8,25,25,0,0,1,0,4.32c-.06.72-.16,1.44-.28,2.16a11.4,11.4,0,0,1-.52,2,21.52,21.52,0,0,1-4.32,7.32A22.75,22.75,0,0,1,98.93,69.4a41.44,41.44,0,0,1-8.83-.17,68.11,68.11,0,0,1-8.77-1.77l-.69-.17-.46.34-1.44,1.09c-.47.39-.93.79-1.39,1.19A18.15,18.15,0,0,0,76,71.23a15.83,15.83,0,0,0-1.22,1.45,17.67,17.67,0,0,0,1.84-.46,16.55,16.55,0,0,0,1.76-.6c.56-.24,1.12-.47,1.67-.73l1-.51a71.27,71.27,0,0,0,8.63,1.74,44.69,44.69,0,0,0,9.47.21A28.73,28.73,0,0,0,108.52,70a23.45,23.45,0,0,0,7.85-5.71,24.5,24.5,0,0,0,4.9-8.38,13.71,13.71,0,0,0,.63-2.45c.13-.79.24-1.58.3-2.38a27,27,0,0,0,0-4.84,18.27,18.27,0,0,0-3.34-9.25,16.51,16.51,0,0,0-3.54-3.54,18,18,0,0,0-2.13-1.32q-.46-.24-.93-.45a14.25,14.25,0,0,0,.79-3.61,9.1,9.1,0,0,0-1.14-5.4,10,10,0,0,0-4-3.68,15.45,15.45,0,0,0-4.2-1.43,35.12,35.12,0,0,0-5.67-9.38,20.5,20.5,0,0,0-10-6.43,23.19,23.19,0,0,0-11.76.06A34.42,34.42,0,0,0,66.43,6,17,17,0,0,0,61.6,2a16.73,16.73,0,0,0-6.84-2c-4.77-.33-9.37,1.09-13.51,3S33.06,7.69,30.59,11.7a14.35,14.35,0,0,0-1.05,12.94v0c-1.17,1.18-2.3,2.39-3.43,3.61l-.12.11a10.56,10.56,0,0,0-6.82-3.75,11.86,11.86,0,0,0-7.63,2.12,10,10,0,0,0-2.9,2.79A9.19,9.19,0,0,0,7,33.19a7.82,7.82,0,0,0,.34,4,11.73,11.73,0,0,0,2,3.47L10,41.74a27,27,0,0,0-5.83,5.4A19.1,19.1,0,0,0,.48,54.32a16.2,16.2,0,0,0-.48,4,17.09,17.09,0,0,0,.62,4,22.36,22.36,0,0,0,3.77,7.16h0a14.76,14.76,0,0,0,5.91,5,16.87,16.87,0,0,0,7.59,1.59,25.18,25.18,0,0,0,7.63-1.42,41.34,41.34,0,0,0,7-3.2,8.5,8.5,0,0,0,3,2.55,14.43,14.43,0,0,0,3.75,1.42,23,23,0,0,0,3.95.6l2,.07.89,0,.18.24a39.47,39.47,0,0,0,8.08,7.29,50.43,50.43,0,0,0,20.36,7.52,83.56,83.56,0,0,0,21.66.18A116.32,116.32,0,0,0,117.48,87l-.3-1.37A74.57,74.57,0,0,1,102,86a68.69,68.69,0,0,1-14.9-2.84c-1.21-.38-2.41-.79-3.57-1.27a21.64,21.64,0,0,1-3.22-1.91,16.18,16.18,0,0,1-5.06-5.45"/></g></g></svg>