<svg xmlns="http://www.w3.org/2000/svg" viewBox="0 0 113.43 79.82"><title>Asset 5</title><g id="Layer_2" data-name="Layer 2"><g id="Layer_1-2" data-name="Layer 1"><path d="M78.94,14.82c1.06-1.34,2.17-2.65,3.25-4l3.33-3.91A36.49,36.49,0,0,1,88.91,3.1,22.33,22.33,0,0,1,93.09,0l.14.14a23.06,23.06,0,0,1-2.9,4.31A40,40,0,0,1,86.65,8l-3.75,3.5c-1.28,1.15-2.53,2.31-3.82,3.44Z"/><path d="M84.21,16.58c1.18-.91,2.38-1.77,3.57-2.66l3.62-2.57a27.26,27.26,0,0,1,3.68-2.48,15.89,15.89,0,0,1,4.29-1.48l.11.18a15.6,15.6,0,0,1-3.3,3.11,26.68,26.68,0,0,1-3.9,2.12l-4,2c-1.34.64-2.66,1.31-4,1.93Z"/><path d="M90.55,20c1.42-.56,2.86-1.09,4.3-1.54A9.56,9.56,0,0,1,97,17.82a5.75,5.75,0,0,1,2.37.23l0,.16a5.88,5.88,0,0,1-2.06,1.2,8.85,8.85,0,0,1-2.24.33c-1.51.21-3,.33-4.56.43Z"/><path d="M28.86,13.2a14,14,0,0,1-2.42-2.09,22.66,22.66,0,0,1-2-2.41,22.8,22.8,0,0,1-1.61-2.65,13.59,13.59,0,0,1-1.16-3,14,14,0,0,1,2.42,2.08,23.71,23.71,0,0,1,2,2.41,23.8,23.8,0,0,1,1.61,2.66A13.59,13.59,0,0,1,28.86,13.2Z"/><path d="M23.51,17.38a11.37,11.37,0,0,1-2.39-1.2A18.07,18.07,0,0,1,19,14.63a17.83,17.83,0,0,1-1.87-1.82,11.19,11.19,0,0,1-1.57-2.16A11.19,11.19,0,0,1,18,11.84a18.84,18.84,0,0,1,2.09,1.55,17.83,17.83,0,0,1,1.87,1.82A11.26,11.26,0,0,1,23.51,17.38Z"/><path d="M10.31,32c-.9,0-1.78,0-2.66,0S5.88,31.85,5,31.78a9.09,9.09,0,0,1-2.61-.26A6.14,6.14,0,0,1,0,30l0-.23a6.15,6.15,0,0,1,2.77-.52A9.1,9.1,0,0,1,5.34,30c.85.26,1.68.53,2.52.83s1.66.59,2.49.93Z"/><path d="M16.86,66.8c-1,.58-2,1.14-3.07,1.62a5.31,5.31,0,0,1-1.58.7A3.8,3.8,0,0,1,10.35,69l0-.15a3.69,3.69,0,0,1,1.4-1.24,5.5,5.5,0,0,1,1.67-.39c1.13-.23,2.28-.4,3.44-.53Z"/><path d="M21.78,71.42c-.57.73-1.17,1.41-1.76,2.12s-1.2,1.38-1.82,2.06a11,11,0,0,1-1.89,2,7.26,7.26,0,0,1-2.63,1.17l-.14-.15A7,7,0,0,1,15,76.09a10.72,10.72,0,0,1,2.15-1.68c.74-.55,1.48-1.08,2.23-1.61s1.51-1,2.29-1.53Z"/><path d="M80.58,72.11c1.12,1.14,2.22,2.28,3.25,3.47a10.43,10.43,0,0,1,1.52,1.81,6.24,6.24,0,0,1,.8,2.34l-.13.09a6.25,6.25,0,0,1-2-1.47,9.79,9.79,0,0,1-1.26-2C82,75,81.19,73.62,80.45,72.21Z"/><path d="M91.84,72.16a3.52,3.52,0,0,1,1.42.19,4.13,4.13,0,0,1,1.16.55,4.4,4.4,0,0,1,1,.86A3.54,3.54,0,0,1,96.1,75a3.38,3.38,0,0,1-1.42-.18,4.44,4.44,0,0,1-1.16-.56,4.59,4.59,0,0,1-1-.86A3.56,3.56,0,0,1,91.84,72.16Z"/><path d="M106.54,46.38a5.85,5.85,0,0,1,1.89-.14,8.63,8.63,0,0,1,1.77.31,7.92,7.92,0,0,1,1.67.65,5.66,5.66,0,0,1,1.56,1.09,5.65,5.65,0,0,1-1.9.13,8.19,8.19,0,0,1-1.77-.3,8.75,8.75,0,0,1-1.67-.65A6.07,6.07,0,0,1,106.54,46.38Z"/></g></g></svg>