<svg xmlns="http://www.w3.org/2000/svg" viewBox="0 0 113.43 79.82"><title>Asset 7</title><g id="Layer_2" data-name="Layer 2"><g id="Layer_1-2" data-name="Layer 1"><path d="M95.31,38.8a20.9,20.9,0,0,0-.77-8,12.7,12.7,0,0,0-2-3.81,12.07,12.07,0,0,0-3.22-2.87,17.52,17.52,0,0,0-8-2.29,30.11,30.11,0,0,0-7.69.58,15.77,15.77,0,0,0-1.11-2.05,10.35,10.35,0,0,0-1.94-2.18,13.94,13.94,0,0,0-5-2.65,34.17,34.17,0,0,0-11.09-1.11,46.88,46.88,0,0,0-11,1.59,16.29,16.29,0,0,0-5.05,2.36,7.54,7.54,0,0,0-1.93,2.05,4.92,4.92,0,0,0-.57,1.31,5.55,5.55,0,0,0-.13.71c0,.12,0,.24,0,.36V23A27.27,27.27,0,0,0,29,22.85a15.59,15.59,0,0,0-6.79,2.09,9.55,9.55,0,0,0-4.3,5.88,12.61,12.61,0,0,0-.39,3.66,15.6,15.6,0,0,0,.38,3,19.34,19.34,0,0,0-4,4.52,10.51,10.51,0,0,0-1.33,3.26,8.22,8.22,0,0,0,0,3.66,11.82,11.82,0,0,0,3.76,5.89A21.8,21.8,0,0,0,20.87,58a11.11,11.11,0,0,0,0,4.77,7.28,7.28,0,0,0,1.46,3,8.2,8.2,0,0,0,2.55,2,14.35,14.35,0,0,0,5.74,1.37,26.19,26.19,0,0,0,4.69-.21,21.31,21.31,0,0,0,4.82,3.86A17.69,17.69,0,0,0,47,74.92a19.6,19.6,0,0,0,7.09-.65,24.12,24.12,0,0,0,3.31-1.18,25.54,25.54,0,0,0,2.38-1.23,18.31,18.31,0,0,0,3.77,1.24,13.28,13.28,0,0,0,5,.09,12.33,12.33,0,0,0,4.65-1.86,13.81,13.81,0,0,0,1.94-1.56c.34-.34.66-.67,1-1a14.18,14.18,0,0,0,3.58.86,13.84,13.84,0,0,0,4.76-.37,16.49,16.49,0,0,0,4.33-1.79,18.23,18.23,0,0,0,3.73-2.84l-.08.08a22.94,22.94,0,0,0,4.66-5.56,16.94,16.94,0,0,0,2.2-7,18.87,18.87,0,0,0-.9-7.21A22.41,22.41,0,0,0,95.31,38.8Zm1.94,12.51a14.82,14.82,0,0,1-1.93,6.07,20.25,20.25,0,0,1-4.19,5h0l-.07.06a16.09,16.09,0,0,1-3.19,2.41,14.24,14.24,0,0,1-3.69,1.52,11.06,11.06,0,0,1-7.49-.72L77.76,65A6.39,6.39,0,0,0,79,64a7.59,7.59,0,0,0,1.51-2.26l.74.44a11.83,11.83,0,0,0,1.44.54,6,6,0,0,0,3.22,0,4.37,4.37,0,0,0,3-5.19,8.83,8.83,0,0,1-1.46,2.37,4.6,4.6,0,0,1-2,1.26,9.45,9.45,0,0,1-2.56.32c-.46-.05-.93,0-1.42-.05l-.78,0a8.17,8.17,0,0,0-.23-5.85,10.82,10.82,0,0,1-.94,5.35,7.16,7.16,0,0,1-1.58,2,5.56,5.56,0,0,1-1,.75l-1.22.66a13,13,0,0,1-5.08,1.57,8.34,8.34,0,0,1-5.22-1.32,6.88,6.88,0,0,0,5.22,2.59,10,10,0,0,0,3.81-.54c-.27.31-.57.65-.87.93a10,10,0,0,1-1.55,1.22,9.36,9.36,0,0,1-3.6,1.43,12.47,12.47,0,0,1-7.7-1.5L60,68.28l-.8.52a18.59,18.59,0,0,1-2.63,1.4,22.59,22.59,0,0,1-2.86,1,17,17,0,0,1-5.92.55A14.25,14.25,0,0,1,42.2,70a19.42,19.42,0,0,1-3.61-2.68,22,22,0,0,0,3.25-.52,3.61,3.61,0,0,0,.71,1.59A3,3,0,0,0,45,69.51,6.05,6.05,0,0,0,47.3,69a12.27,12.27,0,0,0,2-1c-.74.18-1.46.39-2.19.5a6.48,6.48,0,0,1-2.1,0,2,2,0,0,1-1.48-.89,3,3,0,0,1-.37-1.7l.07-1-1,.18a25.88,25.88,0,0,1-4.32.58c-.3,0-.61,0-.91,0l-.17-.18-.6.12A6.59,6.59,0,0,1,34,65.05a4.43,4.43,0,0,1-2.15-3.16,12.76,12.76,0,0,1,0-4.4,9.36,9.36,0,0,0-1,4.52A5.21,5.21,0,0,0,33,66.12c-.63,0-1.26.06-1.88,0a11.42,11.42,0,0,1-4.44-.91,4.32,4.32,0,0,1-2.5-2.82A9.33,9.33,0,0,1,24.24,58l.28-1.24-1.18-.49a20.71,20.71,0,0,1-5-2.94A9.24,9.24,0,0,1,15.15,49a6.9,6.9,0,0,1,.69-5.19,16.57,16.57,0,0,1,2.9-3.85c0,.06,0,.13,0,.2a7.74,7.74,0,0,0,1,3.52,15.74,15.74,0,0,0,4.61,5.14,26.49,26.49,0,0,1-3.45-5.67,6,6,0,0,1,.23-5.77A12.27,12.27,0,0,1,26,33.39a45.55,45.55,0,0,1,6.2-2.56,20.64,20.64,0,0,0-6.73,1.4,11.6,11.6,0,0,0-5.7,4.24c-.1.16-.18.33-.27.5a12.27,12.27,0,0,1-.18-5.22,8.36,8.36,0,0,1,3.33-5.27,14.59,14.59,0,0,1,6.18-2.41,45.77,45.77,0,0,1,7-.5.23.23,0,0,0,0-.16v-.3c0-.11,0-.22,0-.32a3.55,3.55,0,0,1,.12-.65,4.84,4.84,0,0,1,.53-1.21A7,7,0,0,1,38.31,19a15.73,15.73,0,0,1,4.9-2.25A46.33,46.33,0,0,1,54,15.28a33.08,33.08,0,0,1,10.75,1.14,12.87,12.87,0,0,1,4.64,2.46,9.55,9.55,0,0,1,1.7,1.94,18.89,18.89,0,0,1,1.24,2.38l.21.44.53-.11A28.65,28.65,0,0,1,80.89,23,16.07,16.07,0,0,1,88.19,25a10.3,10.3,0,0,1,4.47,5.76,17.31,17.31,0,0,1,.75,5.2,9.2,9.2,0,0,0-3-2.85A12.85,12.85,0,0,0,85,31.41a26.56,26.56,0,0,1,4.6,2.79,8.67,8.67,0,0,1,3,3.89,7.54,7.54,0,0,1-.19,4.84,28.56,28.56,0,0,1-2.33,4.84,13.16,13.16,0,0,0,3.51-4.36,8.5,8.5,0,0,0,.85-2.85,21.2,21.2,0,0,1,2,4.34A16.91,16.91,0,0,1,97.25,51.31Z"/><path d="M82.9,11.52,86.65,8a40,40,0,0,0,3.68-3.57A23.06,23.06,0,0,0,93.23.14L93.09,0a22.33,22.33,0,0,0-4.18,3.1,36.49,36.49,0,0,0-3.39,3.84l-3.33,3.91c-1.08,1.32-2.19,2.63-3.25,4l.14.14C80.37,13.83,81.62,12.67,82.9,11.52Z"/><path d="M95.08,8.87a27.26,27.26,0,0,0-3.68,2.48l-3.62,2.57c-1.19.89-2.39,1.75-3.57,2.66l.11.18c1.35-.62,2.67-1.29,4-1.93l4-2a26.68,26.68,0,0,0,3.9-2.12,15.6,15.6,0,0,0,3.3-3.11l-.11-.18A15.89,15.89,0,0,0,95.08,8.87Z"/><path d="M97,17.82a9.56,9.56,0,0,0-2.18.65c-1.44.45-2.88,1-4.3,1.54l0,.16c1.53-.1,3-.22,4.56-.43a8.85,8.85,0,0,0,2.24-.33,5.88,5.88,0,0,0,2.06-1.2l0-.16A5.75,5.75,0,0,0,97,17.82Z"/><path d="M24.48,8.7a22.66,22.66,0,0,0,2,2.41,14,14,0,0,0,2.42,2.09,13.59,13.59,0,0,0-1.16-3,23.8,23.8,0,0,0-1.61-2.66,23.71,23.71,0,0,0-2-2.41,14,14,0,0,0-2.42-2.08,13.59,13.59,0,0,0,1.16,3A22.8,22.8,0,0,0,24.48,8.7Z"/><path d="M19,14.63a18.07,18.07,0,0,0,2.1,1.55,11.37,11.37,0,0,0,2.39,1.2,11.26,11.26,0,0,0-1.57-2.17,17.83,17.83,0,0,0-1.87-1.82A18.84,18.84,0,0,0,18,11.84a11.19,11.19,0,0,0-2.4-1.19,11.19,11.19,0,0,0,1.57,2.16A17.83,17.83,0,0,0,19,14.63Z"/><path d="M10.35,31.74c-.83-.34-1.66-.62-2.49-.93S6.19,30.24,5.34,30a9.1,9.1,0,0,0-2.53-.71A6.15,6.15,0,0,0,0,29.79L0,30a6.14,6.14,0,0,0,2.39,1.5A9.09,9.09,0,0,0,5,31.78c.88.07,1.76.12,2.65.15s1.76.05,2.66,0Z"/><path d="M16.86,66.8l-.05-.15c-1.16.13-2.31.3-3.44.53a5.5,5.5,0,0,0-1.67.39,3.69,3.69,0,0,0-1.4,1.24l0,.15a3.8,3.8,0,0,0,1.86.16,5.31,5.31,0,0,0,1.58-.7C14.83,67.94,15.85,67.38,16.86,66.8Z"/><path d="M19.35,72.8c-.75.53-1.49,1.06-2.23,1.61A10.72,10.72,0,0,0,15,76.09a7,7,0,0,0-1.43,2.5l.14.15a7.26,7.26,0,0,0,2.63-1.17,11,11,0,0,0,1.89-2c.62-.68,1.22-1.36,1.82-2.06s1.19-1.39,1.76-2.12l-.14-.15C20.86,71.76,20.12,72.29,19.35,72.8Z"/><path d="M83.83,75.58c-1-1.19-2.13-2.33-3.25-3.47l-.13.1c.74,1.41,1.5,2.8,2.32,4.14a9.79,9.79,0,0,0,1.26,2,6.25,6.25,0,0,0,2,1.47l.13-.09a6.24,6.24,0,0,0-.8-2.34A10.43,10.43,0,0,0,83.83,75.58Z"/><path d="M94.42,72.9a4.13,4.13,0,0,0-1.16-.55,3.52,3.52,0,0,0-1.42-.19,3.56,3.56,0,0,0,.72,1.24,4.59,4.59,0,0,0,1,.86,4.44,4.44,0,0,0,1.16.56A3.38,3.38,0,0,0,96.1,75a3.54,3.54,0,0,0-.71-1.24A4.4,4.4,0,0,0,94.42,72.9Z"/><path d="M111.87,47.2a7.92,7.92,0,0,0-1.67-.65,8.63,8.63,0,0,0-1.77-.31,5.85,5.85,0,0,0-1.89.14,6.07,6.07,0,0,0,1.55,1.09,8.75,8.75,0,0,0,1.67.65,8.19,8.19,0,0,0,1.77.3,5.65,5.65,0,0,0,1.9-.13A5.66,5.66,0,0,0,111.87,47.2Z"/></g></g></svg>