<svg xmlns="http://www.w3.org/2000/svg" viewBox="0 0 64.98 61.48"><defs><style>.cls-1{stroke:#000;stroke-miterlimit:10;}</style></defs><title>Asset 8</title><g id="Layer_2" data-name="Layer 2"><g id="Layer_1-2" data-name="Layer 1"><polygon class="cls-1" points="62.15 10.12 58.89 13.82 63.84 10.71 62.15 10.12"/><path class="cls-1" d="M64.34,28.5a12.41,12.41,0,0,0-1.4-4.12,8.79,8.79,0,0,0-3-3.17,10,10,0,0,0-4.08-1.39,13.33,13.33,0,0,0-3.68.09,10.21,10.21,0,0,0,0-3.31,7.71,7.71,0,0,0-1.7-3.53,9.85,9.85,0,0,0-3.07-2.38,13.1,13.1,0,0,0-3.61-1.25,21.33,21.33,0,0,0-5.24-1,12.91,12.91,0,0,0-5.3.72,10.88,10.88,0,0,0-4.38,3,12.66,12.66,0,0,0-1.53,2.19,11,11,0,0,0-.58,1.2c-.09.21-.17.42-.25.63l-.11.31-.05.16,0,.08h0a24.32,24.32,0,0,0-6.56-1.68,16.13,16.13,0,0,0-6.92.66,13.63,13.63,0,0,0-5.81,4,17.45,17.45,0,0,0-3.4,6.19A16.23,16.23,0,0,0,3.25,33a10.55,10.55,0,0,0,3.63,6.29,15.71,15.71,0,0,0,6.49,3.12,24.77,24.77,0,0,0,6.25.7A9.25,9.25,0,0,0,21.78,47a8.36,8.36,0,0,0,4.72,2.45,15,15,0,0,0,5.1,0,23.39,23.39,0,0,0,4.1-1.09,4,4,0,0,1,.69,1.91A5.81,5.81,0,0,1,35.81,53a12.34,12.34,0,0,1-1.68,2.61,16.89,16.89,0,0,1-2.21,2.26l-3,2.52,3.73-1A72.22,72.22,0,0,0,40.33,57a40.81,40.81,0,0,0,7.23-3.57,19.76,19.76,0,0,0,6-5.6,10.27,10.27,0,0,0,1.7-7.38,12.63,12.63,0,0,0,3.48-1,9.3,9.3,0,0,0,3.45-2.71A11.89,11.89,0,0,0,64.34,28.5ZM61.21,36a9.63,9.63,0,0,1-6.84,3.27l-.77.07.23.81a7.35,7.35,0,0,1,0,3.55,10.38,10.38,0,0,1-1.49,3.37,18.24,18.24,0,0,1-5.59,5.1,38.1,38.1,0,0,1-7,3.33c-1.41.52-2.85,1-4.31,1.4l.08-.09a13.92,13.92,0,0,0,2-3,7.5,7.5,0,0,0,.8-3.7,6.1,6.1,0,0,0-1.52-3.6L36.33,46l-.68.27a21.42,21.42,0,0,1-4.36,1.18,13.06,13.06,0,0,1-4.41,0,6.54,6.54,0,0,1-3.62-1.85,7.9,7.9,0,0,1-1.89-3.72l-.21-.82-.85,0a26,26,0,0,1-6.5-.55A14.08,14.08,0,0,1,8,38a8.78,8.78,0,0,1-3.17-5.24A15.63,15.63,0,0,1,5,26.29,16.3,16.3,0,0,1,8,20.46a12.49,12.49,0,0,1,5.22-3.85,15.43,15.43,0,0,1,6.55-.95,30.57,30.57,0,0,1,6.73,1.28.22.22,0,0,0,.07-.14l0-.08.05-.15.11-.31c.08-.21.16-.41.25-.61a10.76,10.76,0,0,1,.6-1.17,11.84,11.84,0,0,1,1.53-2.11A10.59,10.59,0,0,1,33.4,9.5a12.59,12.59,0,0,1,5.14-.6A20.35,20.35,0,0,1,43.64,10h0a13,13,0,0,1,3.45,1.26A9.29,9.29,0,0,1,50,13.51a7,7,0,0,1,1.48,3.23,9.71,9.71,0,0,1-.14,3.6l-.14.61.64-.12A10.63,10.63,0,0,1,59.44,22a9.34,9.34,0,0,1,3.81,6.56A10.85,10.85,0,0,1,61.21,36Z"/><polygon class="cls-1" points="23.29 0.64 20.87 1.27 23.8 7.89 23.29 0.64"/><polygon class="cls-1" points="16.55 4.96 14.38 6.49 20.87 9.42 16.55 4.96"/><polygon class="cls-1" points="0.87 43.5 2.01 45.77 8.99 44.63 0.87 43.5"/><polygon class="cls-1" points="5.97 53.13 12.58 47.84 4.08 51.05 5.97 53.13"/></g></g></svg>