<svg xmlns="http://www.w3.org/2000/svg" viewBox="0 0 56.3 41.89"><title>Asset 6</title><g id="Layer_2" data-name="Layer 2"><g id="Layer_1-2" data-name="Layer 1"><path d="M33.18,8.27a2.35,2.35,0,0,0,.58.6,2.32,2.32,0,0,0,.8.32,3.21,3.21,0,0,0,1.58-.09,13,13,0,0,0,4.62-3.17,27.55,27.55,0,0,0,3.49-4.22c-1.31,1.26-2.65,2.48-4,3.64A23.2,23.2,0,0,1,38.11,7a8.16,8.16,0,0,1-2.26,1.18,1.59,1.59,0,0,1-1.92-.43,5.35,5.35,0,0,1-.76-2.33A40.12,40.12,0,0,1,33.12,0a19.79,19.79,0,0,0-.72,5.45A5.42,5.42,0,0,0,33.18,8.27Z"/><path d="M40.79,11.38a4.64,4.64,0,0,0,1.94,3.13,7.62,7.62,0,0,0,3.42,1.13,15.65,15.65,0,0,0,3.49,0A26.05,26.05,0,0,0,56.3,14c-1.12.21-2.23.42-3.36.55a29.15,29.15,0,0,1-3.35.3,20.31,20.31,0,0,1-3.32-.14,6.88,6.88,0,0,1-3-1,3.68,3.68,0,0,1-1.58-2.46A8.48,8.48,0,0,1,41.87,8a20.78,20.78,0,0,1,1-3.19c.22-.52.41-1.05.65-1.56s.47-1,.7-1.56a22,22,0,0,0-3.12,6.12A8.44,8.44,0,0,0,40.79,11.38Z"/><path d="M52.62,25.32a7.39,7.39,0,0,1-2-4.14,5.57,5.57,0,0,1,1.82-4.1A23.57,23.57,0,0,1,56.3,14a14,14,0,0,0-4.42,2.52,7.62,7.62,0,0,0-1.67,2.05,5,5,0,0,0-.6,2.67,7.3,7.3,0,0,0,2.45,4.62,14.06,14.06,0,0,0,4.24,2.79A23.91,23.91,0,0,1,52.62,25.32Z"/><path d="M47.44,26.91A3.57,3.57,0,0,0,45,29.12a6.59,6.59,0,0,0-.13,3.2,15.5,15.5,0,0,0,.89,2.93,24,24,0,0,0,3,5.22A51.43,51.43,0,0,1,46.49,35a16.54,16.54,0,0,1-.68-2.82,5.67,5.67,0,0,1,.13-2.7,2.61,2.61,0,0,1,1.78-1.65,8.21,8.21,0,0,1,2.78-.24,38.12,38.12,0,0,1,5.8,1.08,21.64,21.64,0,0,0-5.72-1.85A8,8,0,0,0,47.44,26.91Z"/><path d="M45.4,37.2a9.67,9.67,0,0,0-4.35-2,4.34,4.34,0,0,0-2.52.4,4.62,4.62,0,0,0-1.81,1.75,8.64,8.64,0,0,0-1.08,4.57,11.77,11.77,0,0,1,1.73-4.14,4.15,4.15,0,0,1,1.57-1.33,3.51,3.51,0,0,1,2-.26,10.74,10.74,0,0,1,4,1.68c1.28.8,2.52,1.71,3.77,2.63A19.09,19.09,0,0,0,45.4,37.2Z"/><path d="M33.49,37.23a2.88,2.88,0,0,0-1.71-1,2.26,2.26,0,0,0-1.87.8,5.67,5.67,0,0,0-1,1.53,9.94,9.94,0,0,0-.79,3.32,30.25,30.25,0,0,1,1.48-3c.54-.88,1.3-1.82,2-1.7s1.54,1,2.15,1.87,1.19,1.84,1.82,2.79a12.79,12.79,0,0,0-1.16-3.2A7,7,0,0,0,33.49,37.23Z"/><path d="M20,36.14a4.8,4.8,0,0,0-1.82-2.45,5.94,5.94,0,0,0-2.91-.9,14.4,14.4,0,0,0-5.71,1.08c-.54.2-1.06.42-1.58.66a20.38,20.38,0,0,0,2.73-2.35,10.49,10.49,0,0,0,2.16-3.25,5.68,5.68,0,0,0,.12-4,7.43,7.43,0,0,0-2.41-3.15,14.56,14.56,0,0,0-3.31-2c-.76-.34-1.54-.63-2.33-.9l.93.17a21.88,21.88,0,0,0,3,.29,7.28,7.28,0,0,0,3.16-.54,2.18,2.18,0,0,0,1.15-1.48,2.91,2.91,0,0,0-.27-1.73A10.24,10.24,0,0,0,11.15,13,23.32,23.32,0,0,0,8.92,10.9,31.27,31.27,0,0,0,12.45,13a15.39,15.39,0,0,0,3.37,1.3,5.53,5.53,0,0,0,1.92.12,2.51,2.51,0,0,0,1.82-1.09,3.18,3.18,0,0,0,.33-1,3.21,3.21,0,0,0,.06-1,4.83,4.83,0,0,0-.09-.94,6.53,6.53,0,0,0-.19-.9,19.38,19.38,0,0,0-1.24-3.37c-.25-.54-.52-1.08-.79-1.62.31.42.63.82,1,1.22a10.33,10.33,0,0,0,5.82,3.8A5.22,5.22,0,0,0,28,8.81,8.28,8.28,0,0,0,30.48,6.3,20.11,20.11,0,0,0,33.12,0c-.25.51-.49,1-.71,1.54s-.52,1-.77,1.5-.55,1-.82,1.46-.61.92-1,1.35A8.54,8.54,0,0,1,27.51,8a4.32,4.32,0,0,1-2.93.57,7,7,0,0,1-2.89-1.23,16.76,16.76,0,0,1-2.52-2.12A26.44,26.44,0,0,1,17,2.71c-.72-.86-1.38-1.78-2-2.71.46,1.09,1,2.13,1.44,3.22s.94,2.14,1.35,3.23a25,25,0,0,1,1,3.29,4.83,4.83,0,0,1-.05,3.07c-.43.75-1.61.78-2.68.56a17.17,17.17,0,0,1-3.25-1.07,34.85,34.85,0,0,1-3.15-1.5c-1-.52-2.07-1.1-3.1-1.67a51.85,51.85,0,0,1,4,4.39,10,10,0,0,1,1.51,2.42,2.14,2.14,0,0,1,.18,1.18,1.21,1.21,0,0,1-.65.78,6.36,6.36,0,0,1-2.71.48A28.91,28.91,0,0,1,6,18.27C4,18.09,2,17.81,0,17.58c1.18.45,2.37.83,3.52,1.33a33.53,33.53,0,0,1,3.39,1.55c.55.28,1.06.63,1.59.93A14.44,14.44,0,0,1,10,22.48,6.62,6.62,0,0,1,12,25.25,4.67,4.67,0,0,1,12,28.6a10.76,10.76,0,0,1-1.84,3.07,19.66,19.66,0,0,1-2.64,2.6,19.76,19.76,0,0,1-2.07,1.57l-1,.59c1.79-.65,3.56-1.29,5.35-1.82a17,17,0,0,1,5.41-.83,5.28,5.28,0,0,1,2.46.7,4.27,4.27,0,0,1,1.61,1.94,16.07,16.07,0,0,1,.81,5.47A11.92,11.92,0,0,0,20,36.14Z"/><path d="M26.42,36.81a2.39,2.39,0,0,0-.92-.57,2.07,2.07,0,0,0-1.13,0,5.53,5.53,0,0,0-2.79,2.49,14.11,14.11,0,0,0-1.51,3.19c.73-.92,1.41-1.86,2.14-2.73A11.06,11.06,0,0,1,23.36,38a3.16,3.16,0,0,1,1.26-.77c.81-.28,1.57.62,2.08,1.58s.87,2.11,1.46,3.13a15.8,15.8,0,0,0-.75-3.45A4.73,4.73,0,0,0,26.42,36.81Z"/></g></g></svg>