<svg xmlns="http://www.w3.org/2000/svg" viewBox="0 0 425.2 425.2"><defs><style>.cls-1{fill:#fff;opacity:0.97;isolation:isolate;}.cls-2{fill:#c22929;stroke:#c22929;stroke-miterlimit:10;stroke-width:5px;}</style></defs><title>scroll2</title><g id="Layer_2" data-name="Layer 2"><g id="Layer_1-2" data-name="Layer 1"><path class="cls-1" d="M23.89,0H401.31C414.5,0,425.2,13.71,425.2,30.62v364c0,16.91-10.7,30.62-23.89,30.62H23.89C10.69,425.2,0,411.49,0,394.58v-364C0,13.71,10.69,0,23.89,0Z"/><rect class="cls-2" x="197.1" y="237.48" width="30.37" height="4.87"/><rect class="cls-2" x="208.29" y="124.58" width="8.5" height="39.81"/><path class="cls-2" d="M227.57,283.26H198.28c-1.1,0-1.39.3-1.39,1.4v35.61h-9.26l23.87,24.49,26-24.63h-9.95Z"/><path class="cls-2" d="M284.69,149.91c0-8.24,0-16.48-.21-24.71a65.43,65.43,0,0,0-1.3-11.75c-2.93-13.36-10.46-23.19-23.11-28.82a50.12,50.12,0,0,0-20.27-4.1q-27.3-.18-54.6,0a57,57,0,0,0-12,1.37c-19.16,4.32-31.15,19.15-32.45,38.91-.4,6-.29,12-.29,18v96.84c0,5.55,0,11,.17,16.55A39.25,39.25,0,0,0,147,272.9c8.29,12.53,20,19.28,35,20.12,1.3.06,2.6,0,4,0v-9.25c-1.15-.1-2.18-.25-3.22-.32A33.36,33.36,0,0,1,160.87,275a30.16,30.16,0,0,1-10.63-21.82c-.19-3.79-.19-7.59-.19-11.39q-.06-13.06-.06-26.15,0-45.91.15-91.92a38.27,38.27,0,0,1,.65-7.62c2.5-12.14,9.55-20.37,21.38-24.37,4.27-1.44,8.72-1.49,13.15-1.59,9.15-.21,18.3-.47,27.45-.47,7.95,0,15.91.19,23.86.33a70.16,70.16,0,0,1,13.1,1c14,2.94,23.2,13.55,24.82,27.39a124.1,124.1,0,0,1,.5,12.93c.07,9.24.07,18.47.07,27.71v69.84c0,7.16,0,14.32-.13,21.48a42.87,42.87,0,0,1-1,8.89c-2.79,11.39-10.3,18.47-21.2,22.07-4.31,1.46-8.78,2.35-13.18,3.46a1.18,1.18,0,0,0-1.06,1.38c.06,1.92,0,3.84,0,5.76,0,.82.24,1.19,1.08,1.14,3.33-.23,6.72-.15,10-.71,17.92-3,31.68-17.36,34.28-35.92a116.42,116.42,0,0,0,.7-14.34c.15-10.36.15-20.72.15-31.07Q284.76,180.45,284.69,149.91Z"/><path class="cls-2" d="M196.94,273.84a2.21,2.21,0,0,0,.13.63H227.3v-9c-.19-.09-.26-.15-.32-.13q-14.62,0-29.25,0c-.79,0-.79.43-.79,1Z"/><rect class="cls-2" x="196.94" y="249.89" width="30.52" height="6.93"/></g></g></svg>