<svg xmlns="http://www.w3.org/2000/svg" viewBox="0 0 650 507.17"><defs><style>.cls-1{fill:#fff;opacity:0.4;}.cls-2{fill:#c22929;}</style></defs><title>scroll</title><g id="Layer_2" data-name="Layer 2"><g id="Layer_1-2" data-name="Layer 1"><rect class="cls-1" width="650" height="507.17"/><path class="cls-2" d="M298.33,324.75V334c-1.35,0-2.65.06-3.95,0-15.05-.84-26.76-7.59-35.05-20.12A39.39,39.39,0,0,1,253,293.18c-.19-5.51-.17-11-.17-16.55q0-48.42,0-96.84c0-6-.11-12,.29-18,1.3-19.76,13.29-34.59,32.45-38.91a56.7,56.7,0,0,1,12-1.37c18.2-.15,36.4-.12,54.6,0a50,50,0,0,1,20.27,4.1c12.65,5.63,20.18,15.46,23.11,28.82a64.25,64.25,0,0,1,1.3,11.75c.23,8.23.19,16.47.21,24.71q.07,30.54.07,61.08c0,10.35,0,20.71-.15,31.07a114.11,114.11,0,0,1-.7,14.34c-2.6,18.56-16.36,32.91-34.28,35.92-3.28.56-6.67.48-10,.71-.84.05-1.1-.32-1.08-1.14.05-1.92.06-3.84,0-5.76,0-.86.28-1.18,1.06-1.38,4.4-1.11,8.87-2,13.18-3.46,10.9-3.6,18.41-10.68,21.2-22.07a42.08,42.08,0,0,0,1-8.89c.16-7.16.12-14.32.13-21.48q0-34.92,0-69.84c0-9.24,0-18.47-.07-27.71a121.1,121.1,0,0,0-.5-12.93c-1.62-13.84-10.8-24.45-24.82-27.39A69.5,69.5,0,0,0,349,131c-7.95-.14-15.91-.35-23.86-.33-9.15,0-18.3.26-27.45.47-4.43.1-8.88.15-13.15,1.59-11.83,4-18.88,12.23-21.38,24.37a38.83,38.83,0,0,0-.65,7.62q-.14,46-.15,91.92,0,13.08.06,26.15c0,3.8,0,7.6.19,11.39A30.21,30.21,0,0,0,273.24,316a33.4,33.4,0,0,0,21.87,8.43C296.15,324.5,297.18,324.65,298.33,324.75Z"/><path class="cls-2" d="M320.66,165.56h8.5v39.81h-8.5Z"/><path class="cls-2" d="M339.92,361.11h9.95l-26,24.63L300,361.25h9.26v-1.53c0-11.36,0-22.72,0-34.08,0-1.1.29-1.41,1.39-1.4,9.32,0,18.64,0,28,0h1.29Z"/><path class="cls-2" d="M339.67,306.45v9H309.44a2.8,2.8,0,0,1-.13-.63c0-2.51,0-5,0-7.55,0-.57,0-1,.79-1q14.63,0,29.25.05C339.41,306.3,339.48,306.36,339.67,306.45Z"/><path class="cls-2" d="M339.83,290.87v6.93H309.31v-6.93Z"/><path class="cls-2" d="M339.84,278.46v4.87H309.47v-4.87Z"/></g></g></svg>