<svg xmlns="http://www.w3.org/2000/svg" viewBox="0 0 41.4 8.98"><defs><style>.cls-1{fill:#231815;}</style></defs><title>Asset 3</title><g id="Layer_2" data-name="Layer 2"><g id="Layer_1-2" data-name="Layer 1"><path class="cls-1" d="M3.22.19H5.08L8.3,8.78H6.52l-.72-2H2.51l-.72,2H0Zm2,5.05L4.51,3.08l-.31-1H4.1l-.31,1L3,5.24Z"/><path class="cls-1" d="M9.47.19h3.36a2.91,2.91,0,0,1,1.32.3,2.34,2.34,0,0,1,1,.82,2,2,0,0,1,.35,1.13,2,2,0,0,1-.32,1.12,2,2,0,0,1-.84.72v.1a2.22,2.22,0,0,1,1.07.76,2,2,0,0,1,.4,1.26,2.15,2.15,0,0,1-.38,1.25,2.49,2.49,0,0,1-1,.84A3.31,3.31,0,0,1,13,8.78H9.47ZM12.71,3.7a1.17,1.17,0,0,0,.84-.3.93.93,0,0,0,.32-.74,1,1,0,0,0-.3-.72,1.13,1.13,0,0,0-.81-.3H11.09V3.7Zm.18,3.61A1.28,1.28,0,0,0,13.81,7a1,1,0,0,0,.33-.8,1.07,1.07,0,0,0-.34-.8,1.34,1.34,0,0,0-1-.31H11.09V7.31Z"/><path class="cls-1" d="M19,8.38a4.32,4.32,0,0,1-1.61-1.62,4.55,4.55,0,0,1-.59-2.27,4.52,4.52,0,0,1,.59-2.27A4.34,4.34,0,0,1,19,.59,4.57,4.57,0,0,1,21.29,0a4.5,4.5,0,0,1,2.28.59,4.3,4.3,0,0,1,1.62,1.63,4.52,4.52,0,0,1,.59,2.27,4.55,4.55,0,0,1-.59,2.27,4.27,4.27,0,0,1-1.62,1.62,4.41,4.41,0,0,1-2.28.6A4.47,4.47,0,0,1,19,8.38Zm3.74-1.31a2.69,2.69,0,0,0,1-1.05,3.07,3.07,0,0,0,.38-1.53A3.11,3.11,0,0,0,23.78,3a2.67,2.67,0,0,0-1-1,3,3,0,0,0-2.9,0,2.71,2.71,0,0,0-1,1,3.11,3.11,0,0,0-.38,1.54A3.07,3.07,0,0,0,18.81,6a2.74,2.74,0,0,0,1,1.05,3,3,0,0,0,2.9,0Z"/><path class="cls-1" d="M28.73,8.54A2.9,2.9,0,0,1,27.57,7.3a4.2,4.2,0,0,1-.41-1.94V.19h1.6V5.46a2.17,2.17,0,0,0,.45,1.43,1.76,1.76,0,0,0,2.56,0,2.17,2.17,0,0,0,.45-1.43V.19h1.61V5.36a4.21,4.21,0,0,1-.41,1.89,3,3,0,0,1-1.16,1.27,3.69,3.69,0,0,1-3.53,0Z"/><path class="cls-1" d="M37.38,1.73H35V.19H41.4V1.73H39v7H37.38Z"/></g></g></svg>