<svg xmlns="http://www.w3.org/2000/svg" viewBox="0 0 35.03 8.98"><defs><style>.cls-1{fill:#231815;}</style></defs><title>Asset 1</title><g id="Layer_2" data-name="Layer 2"><g id="Layer_1-2" data-name="Layer 1"><path class="cls-1" d="M0,.19H1.62V3.62H5.23V.19H6.85V8.78H5.23V5.16H1.62V8.78H0Z"/><path class="cls-1" d="M10.47,8.38A4.32,4.32,0,0,1,8.86,6.76a4.45,4.45,0,0,1-.59-2.27,4.42,4.42,0,0,1,.59-2.27A4.34,4.34,0,0,1,10.47.59,4.72,4.72,0,0,1,15,.59a4.37,4.37,0,0,1,1.62,1.63,4.51,4.51,0,0,1,.58,2.27,4.54,4.54,0,0,1-.58,2.27A4.34,4.34,0,0,1,15,8.38a4.65,4.65,0,0,1-4.57,0Zm3.74-1.31a2.76,2.76,0,0,0,1-1.05,3.07,3.07,0,0,0,.37-1.53A3.11,3.11,0,0,0,15.25,3a2.73,2.73,0,0,0-1-1,3,3,0,0,0-2.9,0,2.64,2.64,0,0,0-1,1A3.11,3.11,0,0,0,9.9,4.49,3.07,3.07,0,0,0,10.28,6a2.67,2.67,0,0,0,1,1.05,3,3,0,0,0,2.9,0Z"/><path class="cls-1" d="M18.78.19h2.09l2.28,6h.09l2.28-6h2.1V8.78H26V4.55l.09-1.43H26L23.83,8.78H22.57L20.38,3.12h-.1l.1,1.43V8.78h-1.6Z"/><path class="cls-1" d="M29.58.19H35V1.73H31.2v2h3.44V5.26H31.2v2H35V8.78H29.58Z"/></g></g></svg>