<svg xmlns="http://www.w3.org/2000/svg" viewBox="0 0 35.24 8.98"><defs><style>.cls-1{fill:#231815;}</style></defs><title>Asset 2</title><g id="Layer_2" data-name="Layer 2"><g id="Layer_1-2" data-name="Layer 1"><path class="cls-1" d="M0,.19H1.88L5.34,6h.1L5.34,4.3V.19H7V8.78H5.24L1.6,2.7H1.5l.1,1.66V8.78H0Z"/><path class="cls-1" d="M8.9.19h5.45V1.73H10.52v2H14V5.26H10.52v2h3.83V8.78H8.9Z"/><path class="cls-1" d="M16,.19h2.09l2.28,6h.09l2.28-6h2.1V8.78h-1.6V4.55l.09-1.43h-.09L21.07,8.78H19.81L17.62,3.12h-.1l.1,1.43V8.78H16Z"/><path class="cls-1" d="M28.47,8.38a4.32,4.32,0,0,1-1.61-1.62,4.45,4.45,0,0,1-.59-2.27,4.42,4.42,0,0,1,.59-2.27A4.34,4.34,0,0,1,28.47.59,4.72,4.72,0,0,1,33,.59a4.37,4.37,0,0,1,1.62,1.63,4.51,4.51,0,0,1,.58,2.27,4.54,4.54,0,0,1-.58,2.27A4.34,4.34,0,0,1,33,8.38a4.65,4.65,0,0,1-4.57,0Zm3.74-1.31a2.76,2.76,0,0,0,1-1.05,3.07,3.07,0,0,0,.37-1.53A3.11,3.11,0,0,0,33.25,3a2.73,2.73,0,0,0-1-1,3,3,0,0,0-2.9,0,2.64,2.64,0,0,0-1,1,3.11,3.11,0,0,0-.38,1.54A3.07,3.07,0,0,0,28.28,6a2.67,2.67,0,0,0,1,1.05,3,3,0,0,0,2.9,0Z"/></g></g></svg>